PathFileType	4	(X/Y/Z)	C:\Users\WrightLab\Desktop\Jo\P4V116.trc
DataRate	CameraRate	NumFrames	NumMarkers	Units	OrigDataRate	OrigDataStartFrame	OrigNumFrames
100.00	100.00	       11	19	mm	100.00	197	       525
Frame#	Time	Headset_Front			Headset_Back			Headset_Left			Headset_Right			Left_Shoulder			Right_Shoulder			Sternum			C7			Left Elbow			Right Elbow			Left Wrist			Right Wrist			Left ASIS			Right ASIS			S2			Left Knee			Right Knee			Left Ankle			Right Ankle			
		X1	Y1	Z1	X2	Y2	Z2	X3	Y3	Z3	X4	Y4	Z4	X5	Y5	Z5	X6	Y6	Z6	X7	Y7	Z7	X8	Y8	Z8	X9	Y9	Z9	X10	Y10	Z10	X11	Y11	Z11	X12	Y12	Z12	X13	Y13	Z13	X14	Y14	Z14	X15	Y15	Z15	X16	Y16	Z16	X17	Y17	Z17	X18	Y18	Z18	X19	Y19	Z19	

197	1.960	-218.68556	1670.11926	309.26483										-212.19847	1522.42493	31.78963	-469.22714	1538.26428	201.23502	-272.40265	1471.15991	204.74826	-374.11102	1561.09229	71.73660	-95.54848	1170.36389	-26.74064	-610.37250	1202.12378	287.31354	-31.91726	927.18988	159.91878	-510.25027	946.26892	423.57623	-189.82341	1028.11707	104.08301	-435.66678	1048.80908	327.95950	-418.83780	1052.92468	57.40823	-86.11922	595.65259	237.03586	-455.77097	557.83075	317.23526	-372.00986	216.80847	44.13358	-522.68622	61.84143	192.80186	
198	1.970	-212.15858	1669.78601	318.27634										-207.11377	1521.72693	39.56410	-462.43442	1538.33630	211.34917	-265.56491	1470.37598	213.07961	-368.44418	1561.26135	81.23650	-91.15565	1170.63757	-23.19511	-603.76099	1203.24597	299.67511	-22.93760	928.58179	164.09627	-500.21515	947.70215	435.74805	-182.95297	1029.32166	112.48630	-430.04568	1048.22913	337.31888	-414.15689	1051.78845	66.24845	-74.74107	601.15308	249.07518	-451.62643	556.63184	320.92960	-349.84451	205.58607	70.14762	-522.35840	62.27622	192.87311	
199	1.980	-206.13580	1669.51196	327.54193										-201.70450	1521.98572	48.08652	-455.49942	1537.93958	221.60298	-259.39029	1470.68054	221.74004	-362.23947	1561.02234	90.00406	-87.00381	1170.14172	-18.25676	-595.68976	1202.61011	311.39050	-14.45095	929.81635	168.73123	-489.54898	949.52734	448.47168	-177.16199	1030.43152	120.65055	-424.50461	1047.19604	346.31155	-408.54935	1051.49500	74.49085	-64.00771	606.35651	260.21887	-449.02649	555.52185	324.54526	-326.70361	193.91869	97.12050	-522.00098	62.69451	192.78708	
200	1.990	-199.99295	1669.29492	336.61987										-196.05630	1521.03748	55.92575	-448.37238	1537.95325	231.29857	-252.64763	1469.71130	230.20085	-356.38596	1561.05774	99.58592	-82.49277	1169.91772	-14.13079	-589.16235	1203.46655	324.20984	-5.90784	930.37756	172.21759	-479.81943	950.91058	460.57813	-171.17882	1030.45105	128.90471	-418.82831	1045.64343	355.36142	-402.80600	1050.69238	83.39574	-53.37935	610.45917	271.09595	-445.25925	554.78760	328.43719	-301.58948	181.75063	123.01868	-521.85889	62.91755	192.67888	
201	2.000										-334.83517	1710.97083	306.15088	-190.34082	1519.79980	63.23565	-441.16812	1537.23157	241.29779	-245.87285	1468.77136	238.81287	-350.07074	1560.19824	108.44132	-78.01263	1169.02344	-9.11623	-581.08618	1202.38147	335.60580	2.83774	931.07947	176.54376	-469.00320	951.47137	472.34009	-165.19412	1031.50378	136.58655	-412.60538	1045.34900	364.64291	-396.20059	1050.56177	92.48987	-43.54503	614.45068	281.32245	-441.71664	553.16370	331.98038	-274.67789	169.11157	147.78864	-521.55194	63.20687	192.60318	
202	2.010	-187.73312	1668.13684	354.96945							-328.53391	1709.78760	315.00958	-183.91074	1519.28076	71.91862	-434.17215	1536.64392	250.90111	-238.54399	1467.73938	247.00778	-343.98587	1559.74451	117.94655	-72.89893	1168.72327	-4.52409	-573.42957	1202.22803	346.97525	12.41175	930.86761	179.18269	-459.57068	953.59668	484.30008	-159.21675	1030.78821	145.49181	-405.70993	1043.74341	374.05435	-390.05627	1050.22717	100.15244	-34.02973	617.12164	291.05399	-438.70090	552.55695	335.87820	-246.31883	158.12753	172.76189	-521.03558	63.32898	192.72546	
203	2.020	-181.36281	1667.21143	364.10687							-322.25940	1708.55176	323.93497	-178.21013	1517.99585	80.06121	-427.04544	1535.58276	260.54437	-231.25023	1466.36133	255.32310	-337.19104	1559.00049	126.58011	-68.20047	1167.45178	0.78556	-566.00116	1201.62659	358.85068	20.09001	929.91748	184.39038	-448.81754	953.96887	496.02682	-152.71262	1031.63977	154.86348	-398.74570	1042.35278	383.43777	-383.67551	1049.02942	108.80830	-24.90540	619.31628	300.32300	-434.93039	550.87213	339.43835	-217.60519	145.49364	198.26968	-520.86688	63.68612	192.97736	
204	2.030										-316.02423	1707.27173	332.83194	-171.72487	1517.04553	88.04618	-419.79138	1534.85583	269.89026	-224.05661	1465.06299	263.63898	-330.41095	1557.88208	135.25063	-63.09815	1166.95569	5.93085	-557.27649	1200.83533	370.18536	28.39930	929.24512	188.21954	-438.03677	954.96814	507.78058	-146.41359	1030.61316	163.63550	-393.93161	1039.86035	390.75311	-377.32281	1048.10938	117.06363	-17.18241	620.40393	309.32300	-431.81522	549.68066	343.52676	-187.71873	133.96622	222.92039	-520.64392	63.93203	192.97260	
205	2.040	-168.46198	1665.24146	382.26917							-309.80341	1705.99231	341.76199	-165.88612	1515.43298	96.78767	-412.73148	1533.71594	279.16623	-217.24173	1463.52295	272.36807	-323.81284	1557.01294	144.51384	-58.13524	1165.36035	11.66253	-549.70642	1200.20239	382.06897	36.16649	927.91345	191.69838	-428.67490	956.19910	519.56476	-139.68729	1030.66187	171.96547	-388.02786	1038.70422	399.44583	-370.38513	1047.48328	125.59713	-9.70447	620.27197	318.38623	-428.39325	549.24457	346.90836	-155.78287	122.38264	248.14082	-520.36481	64.56177	192.94313	
206	2.050	-162.41353	1663.72119	391.64328							-302.72223	1704.16199	350.34869	-158.89020	1514.16833	104.99551	-405.37686	1532.62524	288.67114	-209.65724	1461.90051	280.53259	-316.92899	1555.48071	153.14474	-52.60720	1164.59009	17.56899	-541.53125	1199.65784	391.86374	44.04220	926.46381	195.74675	-417.55447	956.47998	531.00195	-132.74725	1030.16882	181.58368	-382.05273	1037.03174	407.64590	-363.26733	1045.97913	135.22899	-2.91069	619.58380	326.53528	-425.10590	547.19244	350.81961	-123.71368	111.25830	272.32458	-519.76074	65.08897	192.71735	
207	2.060	-155.61656	1662.01477	400.58118							-296.31659	1702.66687	359.20624	-151.85249	1512.26331	113.00550	-398.09238	1531.26306	297.80466	-202.56879	1460.31543	289.19049	-309.78119	1554.46814	161.89539	-47.53613	1163.26917	23.32570	-533.46399	1197.91797	402.69717	52.22911	923.87787	199.62376	-406.19983	957.04657	543.15094	-125.95847	1029.25134	190.35066	-375.15543	1034.61084	416.12637	-356.03140	1044.77209	143.35831	3.45872	617.07080	334.41150	-421.53635	546.31677	354.24930	-90.04881	100.90127	296.82846	-519.41327	65.55519	192.67490	
